<svg width="16" height="16" fill="none" xmlns="http://www.w3.org/2000/svg"><path d="M14.8 1.442a3.328 3.328 0 0 0-2.733-.72l-2.548.462A2.667 2.667 0 0 0 8 2.044a2.667 2.667 0 0 0-1.523-.86L3.933.721A3.333 3.333 0 0 0 0 4v7.195a3.333 3.333 0 0 0 2.737 3.28l4.19.762c.71.129 1.436.129 2.146 0l4.194-.762A3.334 3.334 0 0 0 16 11.195V4a3.322 3.322 0 0 0-1.2-2.558zm-7.467 12.51a4.892 4.892 0 0 1-.168-.027l-4.19-.762a2 2 0 0 1-1.642-1.968V4a2 2 0 0 1 2.36-1.967l2.547.466a1.333 1.333 0 0 1 1.093 1.309v10.144zm7.334-2.757a2 2 0 0 1-1.642 1.968l-4.19.762-.168.027V3.808A1.333 1.333 0 0 1 9.76 2.496l2.548-.467A2 2 0 0 1 14.667 4v7.195z" fill="#000"/></svg>