<svg width="16" height="16" fill="none" xmlns="http://www.w3.org/2000/svg"><g clip-path="url(#clip0_229_440)" fill="#191B14"><path d="M10 0H6a3.337 3.337 0 0 0-3.333 3.333v9.334A3.337 3.337 0 0 0 6 16h4a3.337 3.337 0 0 0 3.333-3.333V3.333A3.337 3.337 0 0 0 10 0zM6 1.333h4a2 2 0 0 1 2 2v7.334H4V3.333a2 2 0 0 1 2-2zm4 13.334H6a2 2 0 0 1-2-2V12h8v.667a2 2 0 0 1-2 2z"/><path d="M8 14a.667.667 0 1 0 0-1.333A.667.667 0 0 0 8 14z"/></g><defs><clipPath id="clip0_229_440"><path fill="#fff" d="M0 0h16v16H0z"/></clipPath></defs></svg>