<svg width="20" height="20" fill="none" xmlns="http://www.w3.org/2000/svg"><g clip-path="url(#clip0_304_17)"><path d="M15.665 3.2l-1.268-1.27A3.805 3.805 0 0 0 11.688.81H6.83A3.834 3.834 0 0 0 3 4.638V15.36a3.834 3.834 0 0 0 3.83 3.83h6.127a3.834 3.834 0 0 0 3.83-3.83V5.908A3.806 3.806 0 0 0 15.665 3.2zm-1.083 1.083c.108.108.206.228.29.356h-1.915V2.724c.128.085.247.183.356.29l1.269 1.27zm.673 11.078a2.298 2.298 0 0 1-2.298 2.298H6.83a2.298 2.298 0 0 1-2.297-2.298V4.64a2.298 2.298 0 0 1 2.297-2.3h4.596v2.298a1.532 1.532 0 0 0 1.531 1.531h2.298v9.191zm-2.298-7.659a.766.766 0 0 1 0 1.532H6.83a.766.766 0 1 1 0-1.532h6.127zm.766 3.83a.766.766 0 0 1-.766.766H6.83a.766.766 0 1 1 0-1.532h6.127a.766.766 0 0 1 .766.766zm-.147 2.614a.766.766 0 0 1-.166 1.067 4.95 4.95 0 0 1-2.647.914 2.49 2.49 0 0 1-1.532-.536c-.25-.172-.347-.23-.536-.23-.512.08-.995.289-1.403.608a.766.766 0 0 1-.93-1.216 4.49 4.49 0 0 1 2.336-.924c.51.008 1.004.185 1.403.502.183.164.417.258.662.264a3.511 3.511 0 0 0 1.744-.62.766.766 0 0 1 1.07.17z" fill="#8AAE3E"/></g><defs><clipPath id="clip0_304_17"><path fill="#fff" transform="translate(.703 .81)" d="M0 0h18.381v18.381H0z"/></clipPath></defs></svg>