<svg width="18" height="19" fill="none" xmlns="http://www.w3.org/2000/svg"><g clip-path="url(#clip0_229_665)"><path d="M17.985 2.017v3a.75.75 0 1 1-1.5 0V3.095L12.51 7.05a.75.75 0 0 1-1.057-1.063l3.99-3.969h-1.958a.75.75 0 1 1 0-1.5h3a1.5 1.5 0 0 1 1.5 1.5zm-.679 11.055a2.325 2.325 0 0 1 0 3.283l-.684.788C10.48 23.02-4.468 8.079 1.322 1.918l.862-.75a2.314 2.314 0 0 1 3.247.028c.022.023 1.412 1.83 1.412 1.83a2.325 2.325 0 0 1-.004 3.21l-.87 1.093a9.586 9.586 0 0 0 5.199 5.209l1.098-.874a2.325 2.325 0 0 1 3.21-.005s1.807 1.39 1.83 1.413zm-1.031 1.09s-1.795-1.381-1.818-1.404a.825.825 0 0 0-1.162 0c-.02.02-1.533 1.226-1.533 1.226a.75.75 0 0 1-.734.114 11.25 11.25 0 0 1-6.618-6.61.75.75 0 0 1 .109-.746S5.724 5.23 5.744 5.21a.825.825 0 0 0 0-1.161C5.722 4.025 4.34 2.23 4.34 2.23a.825.825 0 0 0-1.132.028l-.862.75c-4.233 5.087 8.722 17.324 13.179 13.112l.684-.788a.84.84 0 0 0 .066-1.17z" fill="#8AAE3E"/></g><defs><clipPath id="clip0_229_665"><path fill="#fff" transform="translate(0 .5)" d="M0 0h18v18H0z"/></clipPath></defs></svg>