<svg width="18" height="19" fill="none" xmlns="http://www.w3.org/2000/svg"><g clip-path="url(#clip0_229_659)"><path d="M18 9.5a.75.75 0 1 1-1.5 0A7.509 7.509 0 0 0 9 2 .75.75 0 0 1 9 .5a9.01 9.01 0 0 1 9 9zm-6 .75a.75.75 0 1 0 0-1.5h-1.708a1.5 1.5 0 0 0-.542-.542V5.75a.75.75 0 0 0-1.5 0v2.458a1.496 1.496 0 1 0 2.042 2.042H12zM1.37 5.588a.75.75 0 1 0 0 1.5.75.75 0 0 0 0-1.5zM1.5 9.5a.75.75 0 1 0-1.5 0 .75.75 0 0 0 1.5 0zM9 17a.75.75 0 1 0 0 1.5.75.75 0 0 0 0-1.5zM3.166 2.905a.75.75 0 1 0 0 1.5.75.75 0 0 0 0-1.5zm2.668-1.774a.75.75 0 1 0 0 1.5.75.75 0 0 0 0-1.5zM1.37 11.912a.75.75 0 1 0 0 1.5.75.75 0 0 0 0-1.5zm1.796 2.683a.75.75 0 1 0 0 1.5.75.75 0 0 0 0-1.5zm2.668 1.774a.75.75 0 1 0 0 1.5.75.75 0 0 0 0-1.5zm10.796-4.457a.75.75 0 1 0 0 1.5.75.75 0 0 0 0-1.5zm-1.796 2.683a.75.75 0 1 0 0 1.5.75.75 0 0 0 0-1.5zm-2.668 1.774a.75.75 0 1 0 0 1.5.75.75 0 0 0 0-1.5z" fill="#8AAE3E"/></g><defs><clipPath id="clip0_229_659"><path fill="#fff" transform="translate(0 .5)" d="M0 0h18v18H0z"/></clipPath></defs></svg>