<svg width="18" height="18" fill="none" xmlns="http://www.w3.org/2000/svg"><g opacity=".4" clip-path="url(#clip0_229_671)" fill="#191B14"><path d="M9.003 4.378a4.618 4.618 0 1 0 0 9.237 4.618 4.618 0 1 0 0-9.237zm0 7.617a2.997 2.997 0 1 1 0-5.996 2.997 2.997 0 1 1 0 5.996z"/><path d="M12.71.057c-1.655-.077-5.757-.073-7.414 0-1.457.068-2.742.42-3.777 1.456C-.212 3.243.009 5.576.009 8.997c0 3.501-.195 5.78 1.51 7.484 1.737 1.737 4.104 1.51 7.484 1.51 3.468 0 4.665.002 5.891-.473 1.667-.647 2.926-2.137 3.049-4.814.078-1.657.073-5.757 0-7.415-.149-3.16-1.844-5.076-5.232-5.232zm2.622 15.279c-1.135 1.135-2.709 1.033-6.35 1.033-3.75 0-5.255.056-6.352-1.044-1.264-1.258-1.035-3.278-1.035-6.34 0-4.144-.425-7.128 3.734-7.341.955-.034 1.236-.045 3.642-.045l.033.023c3.997 0 7.133-.419 7.321 3.739.043.949.053 1.234.053 3.635-.001 3.707.07 5.22-1.046 6.34z"/><path d="M13.805 5.276a1.08 1.08 0 1 0 0-2.159 1.08 1.08 0 0 0 0 2.159z"/></g><defs><clipPath id="clip0_229_671"><path fill="#fff" d="M0 0h18v18H0z"/></clipPath></defs></svg>