<svg width="95" height="70" fill="none" xmlns="http://www.w3.org/2000/svg"><path d="M15.938 55V44.674l.724-1.247V24.62l6.435-3.143a747.45 747.45 0 0 0-2.445 3.492l-2.394 3.392-5.238 7.458c-.715.998-1.422 1.996-2.12 2.993a1059.8 1059.8 0 0 1-2.07 2.969l-.275-1.123h9.778l.848-.673h10.501v8.18H1.048v-6.36a587.04 587.04 0 0 1 2.12-2.993l2.344-3.342c.798-1.114 1.53-2.145 2.195-3.093l3.991-5.612a1162.68 1162.68 0 0 0 2.17-3.068c.732-1.03 1.455-2.053 2.17-3.068h9.503V55h-9.603z" fill="#8AAE3E"/><path d="M51.136 47.377c-1.731 0-3.291-.266-4.68-.8-1.39-.543-2.572-1.308-3.548-2.294a10.245 10.245 0 0 1-2.25-3.533c-.513-1.369-.77-2.873-.77-4.514 0-2.164.439-4.086 1.314-5.767.886-1.69 2.139-3.014 3.76-3.97 1.62-.967 3.547-1.45 5.781-1.45.695 0 1.38.046 2.053.136.685.09 1.334.216 1.948.378.624.16 1.198.342 1.721.543a9.76 9.76 0 0 1 1.404.619l-.332 3.955c-.775-.483-1.53-.87-2.265-1.162a11.097 11.097 0 0 0-2.128-.65 10.291 10.291 0 0 0-1.963-.195c-1.328 0-2.516.296-3.563.89-1.036.594-1.852 1.454-2.445 2.582-.594 1.127-.891 2.49-.891 4.091 0 1.037.15 2.018.453 2.944a7.187 7.187 0 0 0 1.389 2.43 6.42 6.42 0 0 0 2.294 1.661c.926.393 2.003.589 3.231.589.483 0 .971-.03 1.465-.09a11.16 11.16 0 0 0 1.479-.318 8.45 8.45 0 0 0 1.464-.573c.483-.242.962-.534 1.435-.876l.256 3.91a8.413 8.413 0 0 1-1.419.664 13.57 13.57 0 0 1-1.645.453c-.564.121-1.148.206-1.752.257-.604.06-1.202.09-1.796.09zM61.676 47V25.472h4.318V47h-4.318zm19.135.377c-1.902 0-3.558-.297-4.967-.89-1.399-.594-2.556-1.41-3.472-2.446a10.442 10.442 0 0 1-2.038-3.563 13.418 13.418 0 0 1-.665-4.242c0-2.083.418-3.97 1.254-5.661a9.533 9.533 0 0 1 3.698-4.031c1.64-.997 3.664-1.495 6.07-1.495 1.83 0 3.436.287 4.815.86 1.379.575 2.531 1.375 3.457 2.401a10.204 10.204 0 0 1 2.084 3.563c.463 1.349.694 2.798.694 4.348 0 2.134-.423 4.04-1.268 5.722a9.577 9.577 0 0 1-3.714 3.985c-1.63.966-3.613 1.45-5.948 1.45zm-.076-3.517c1.128 0 2.104-.201 2.93-.604a5.8 5.8 0 0 0 2.052-1.69 7.327 7.327 0 0 0 1.223-2.462c.272-.916.408-1.877.408-2.883a9.946 9.946 0 0 0-.438-3.004 7.292 7.292 0 0 0-1.283-2.431 5.567 5.567 0 0 0-2.068-1.63c-.816-.393-1.757-.59-2.823-.59-1.098 0-2.064.202-2.9.605a5.893 5.893 0 0 0-2.098 1.675 7.581 7.581 0 0 0-1.253 2.461 9.854 9.854 0 0 0-.422 2.914c0 1.027.136 1.998.407 2.914a7.38 7.38 0 0 0 1.238 2.445 5.757 5.757 0 0 0 2.084 1.676c.835.403 1.816.604 2.944.604z" fill="#191B14"/></svg>