<svg width="16" height="20" fill="none" xmlns="http://www.w3.org/2000/svg"><path fill-rule="evenodd" clip-rule="evenodd" d="M3.019 0h6.687l5.667 5.907v11.49A2.601 2.601 0 0 1 12.774 20H3.02a2.602 2.602 0 0 1-2.604-2.604V2.604A2.602 2.602 0 0 1 3.02 0z" fill="#E5252A"/><path opacity=".302" fill-rule="evenodd" clip-rule="evenodd" d="M9.7 0v5.862h5.673L9.7 0z" fill="#fff"/><path d="M3.309 14.922V11.27h1.554c.385 0 .69.105.92.32.23.21.344.495.344.85 0 .354-.114.64-.344.85-.23.214-.535.32-.92.32h-.62v1.313H3.31zm.934-2.109h.515c.14 0 .25-.03.325-.1a.344.344 0 0 0 .115-.274c0-.12-.04-.21-.115-.275-.075-.07-.185-.1-.325-.1h-.515v.75zm2.27 2.11v-3.654h1.294c.254 0 .494.035.72.11.224.075.429.18.609.325.18.14.325.33.43.57.1.24.155.515.155.824 0 .305-.055.58-.155.82-.105.24-.25.43-.43.57-.18.145-.385.25-.61.325a2.29 2.29 0 0 1-.72.11H6.513zm.914-.795h.27a1.214 1.214 0 0 0 .749-.215.741.741 0 0 0 .25-.32c.06-.14.09-.305.09-.495 0-.195-.03-.36-.09-.5a.741.741 0 0 0-.25-.32 1.213 1.213 0 0 0-.345-.164 1.497 1.497 0 0 0-.404-.05h-.27v2.064zm2.763.794V11.27h2.6v.795h-1.665v.585h1.33v.79h-1.33v1.483h-.935z" fill="#fff"/></svg>