<svg width="44" height="44" fill="none" xmlns="http://www.w3.org/2000/svg"><path d="M22 11.895V6.233a3.345 3.345 0 0 1 3.3-3.3 3.304 3.304 0 0 1 3.3 3.3v6.168a5.867 5.867 0 1 0-6.6-.506z" fill="#C8CBC5"/><path d="M39.513 21.676a1.864 1.864 0 0 0-.646 1.461.734.734 0 0 1-1.467-.037v-2.053a2.052 2.052 0 0 0-.63-1.467 1.782 1.782 0 0 0-1.272-.513 1.873 1.873 0 0 0-1.765 1.833.734.734 0 0 1-1.466 0v-.587a2.054 2.054 0 0 0-.63-1.466 1.714 1.714 0 0 0-2.6.19 2.217 2.217 0 0 0-.44 1.377v.12a.734.734 0 0 1-1.467 0l.003-14.3a1.834 1.834 0 0 0-2.025-1.825 1.907 1.907 0 0 0-1.642 1.932v21.144a.733.733 0 0 1-1.217.551l-5.191-4.56a2.467 2.467 0 0 0-1.732-.743 2.069 2.069 0 0 0-1.157.347 2.242 2.242 0 0 0-.343 3.4l9.567 9.785a7.831 7.831 0 0 1 2.273 5.543.733.733 0 0 0 .734.725h12.467a.733.733 0 0 0 .733-.733v-2.321a9.077 9.077 0 0 1 1.604-4.998 7.97 7.97 0 0 0 1.33-4.414v-6.828a2.05 2.05 0 0 0-.629-1.466 1.79 1.79 0 0 0-2.392-.097zM5.793 8.067h12.59c-.023-.243-.05-.486-.05-.734 0-.245.013-.49.038-.733H5.793a.733.733 0 0 1-.526-1.247L6.6 3.978 5.595 2.922 1.525 7.19a.205.205 0 0 0-.004.282l4.126 4.273.953-1.038-1.333-1.394a.733.733 0 0 1 .526-1.246z" fill="#C8CBC5"/></svg>